<svg viewBox="0 0 22 22" fill="none" xmlns="http://www.w3.org/2000/svg">
    <path fill-rule="evenodd" clip-rule="evenodd" d="M21.56 11.25C21.56 10.47 21.49 9.72 21.36 9H11V13.255H16.92C16.665 14.63 15.89 15.795 14.725 16.575V19.335H18.28C20.36 17.42 21.56 14.6 21.56 11.25Z" fill="#4285F4" />
    <path fill-rule="evenodd" clip-rule="evenodd" d="M10.9999 22.0001C13.9699 22.0001 16.4599 21.0151 18.2799 19.3351L14.7249 16.5751C13.7399 17.2351 12.4799 17.6251 10.9999 17.6251C8.13492 17.6251 5.70992 15.6901 4.84492 13.0901H1.16992V15.9401C2.97992 19.5351 6.69992 22.0001 10.9999 22.0001Z" fill="#34A853" />
    <path fill-rule="evenodd" clip-rule="evenodd" d="M4.845 13.0901C4.625 12.4301 4.5 11.7251 4.5 11.0001C4.5 10.2751 4.625 9.57006 4.845 8.91006V6.06006H1.17C0.425 7.54506 0 9.22506 0 11.0001C0 12.7751 0.425 14.4551 1.17 15.9401L4.845 13.0901Z" fill="#FBBC05" />
    <path fill-rule="evenodd" clip-rule="evenodd" d="M10.9999 4.375C12.6149 4.375 14.0649 4.93 15.2049 6.02L18.3599 2.865C16.4549 1.09 13.9649 0 10.9999 0C6.69992 0 2.97992 2.465 1.16992 6.06L4.84492 8.91C5.70992 6.31 8.13492 4.375 10.9999 4.375Z" fill="#EA4335" />
</svg>
    