<svg viewBox="0 0 18 18" fill="none" xmlns="http://www.w3.org/2000/svg">
    <path fill-rule="evenodd" clip-rule="evenodd" d="M5.48761 2.82655C7.80328 2.56774 10.1968 2.56774 12.5125 2.82655C13.8823 2.97965 14.9884 4.05863 15.1496 5.43635C15.4265 7.80404 15.4265 10.1959 15.1496 12.5636C14.9884 13.9413 13.8823 15.0203 12.5125 15.1734C10.1968 15.4322 7.80328 15.4322 5.48761 15.1734C4.11782 15.0203 3.01165 13.9413 2.85051 12.5636C2.57359 10.1959 2.57359 7.80404 2.85051 5.43635C3.01165 4.05863 4.11783 2.97965 5.48761 2.82655ZM9.75006 5.99999C9.75006 6.4142 9.41427 6.74999 9.00006 6.74999C8.58585 6.74999 8.25006 6.4142 8.25006 5.99999C8.25006 5.58578 8.58585 5.24999 9.00006 5.24999C9.41427 5.24999 9.75006 5.58578 9.75006 5.99999ZM9.00006 8.06249C9.31072 8.06249 9.56256 8.31433 9.56256 8.62499V12.375C9.56256 12.6856 9.31072 12.9375 9.00006 12.9375C8.6894 12.9375 8.43756 12.6856 8.43756 12.375V8.62499C8.43756 8.31433 8.6894 8.06249 9.00006 8.06249Z" fill="#757D8A" />
</svg>
    